# xmcd CD database file
#
# Track frame offsets:
#	150
#	23343
#	52253
#	79489
#	108762
#	134195
#	157930
#	187676
#	209954
#	229697
#	248265
#	289933
#
# Disc length: 4164 seconds
#
# Revision: 0
# Processed by: cddbd v1.4PL0 Copyright (c) Steve Scherf et al.
# Submitted via: CDex 1.50beta10
#
DISCID=a210420c
DTITLE=Olga Tañon - Olga Viva, Viva Olga
DYEAR=1900
DGENRE=Merengue
TTITLE0=Es Mentiroso
TTITLE1=Presencié tu Amor
TTITLE2=El Frío de tu Adiós
TTITLE3=Mi Eterno Amor Secreto
TTITLE4=El Papel de Malo
TTITLE5=Medley Boogaloo
TTITLE6=Me Subes, Me Bajas, Me Subes
TTITLE7=Contigo o Sin Tí
TTITLE8=Ah-ah/O-no
TTITLE9=¡Basta ya!
TTITLE10=Tu Amor (Mix)
TTITLE11=Ya me Cansé
EXTD=
EXTT0=
EXTT1=
EXTT2=
EXTT3=
EXTT4=
EXTT5=
EXTT6=
EXTT7=
EXTT8=
EXTT9=
EXTT10=
EXTT11=
PLAYORDER=
